<svg xmlns="http://www.w3.org/2000/svg" xmlns:xlink="http://www.w3.org/1999/xlink" version="1.1"
	id="Layer_1" x="0px" y="0px" style="enable-background:new 0 0 2000 2000;" xml:space="preserve"
	viewBox="524.6 612.9 950.9 774.2">
	<style type="text/css">
		.st0{fill:#034278;}
		.st1{fill:#12AE5A;}
		.st2{fill:#7A2BF9;}
		.st3{fill:#FA2A64;}
		.st4{fill:#A8EAFF;}
		.st5{fill:#107EB1;}
	</style>
	<g>
		<g>
			<g>
				<path class="st0" d="M670.2,1285.7v-27.1h-33v27.1h-12.6v-67.1h12.6v28.3h33v-28.3h12.6v67.1H670.2z"/>
				<path class="st0" d="M802.6,1251.5c0.3,17-10.1,34.1-33.5,34.1c-8.2,0-18.1,0-26.3,0v-67.1c8.2,0,18.1,0,26.3,0     C792.1,1218.5,802.3,1234.9,802.6,1251.5z M755.3,1273.4h13.8c15.2,0,21.3-11.1,21-22c-0.3-10.4-6.4-20.9-21-20.9h-13.8V1273.4z"/>
				<path class="st0" d="M907.3,1234.9c-4.5-4.3-11.2-6.7-17.1-6.7c-14.4,0-23.1,10.9-23.1,24.7c0,11,6.4,22.4,23.1,22.4     c5.3,0,9.9-1.1,15.1-5.4v-11.9h-17.2v-11.3H917v28.3c-6.6,7.6-14.9,12.1-26.7,12.1c-25.2,0-35.5-16.6-35.5-34.2     c0-18.9,11.8-36.3,35.5-36.3c9,0,18,3.4,24.9,10.3L907.3,1234.9z"/>
				<path class="st0" d="M1033.4,1285.6H1019l-19.4-22.4h-12.8v22.4H974v-67.2c10.6,0,21.3,0.1,31.9,0.1     c15.8,0.1,24.1,10.6,24.1,22.2c0,9.2-4.2,18.5-17,21.1l20.3,22.9V1285.6z M986.7,1230.3v21.5h19.3c8,0,11.5-5.4,11.5-10.7     c0-5.4-3.5-10.7-11.5-10.7H986.7z"/>
				<path class="st0" d="M1134.7,1273h-35.1l-5.7,12.6h-13.7l30.1-67.1h13.8l30.1,67.1h-13.8L1134.7,1273z M1117.2,1232.6l-12.5,28.6     h24.9L1117.2,1232.6z"/>
				<path class="st0" d="M1219.1,1265.9v19.7h-12.6v-67.1c10.4,0,21.2-0.1,31.6-0.1c33,0,33.1,47.1,0,47.4H1219.1z M1219.1,1254.3h19     c16.2,0,16.1-23.8,0-23.8h-19V1254.3z"/>
				<path class="st0" d="M1362.9,1285.7v-27.1h-33v27.1h-12.6v-67.1h12.6v28.3h33v-28.3h12.6v67.1H1362.9z"/>
			</g>
		</g>
		<path class="st0" d="M1003.1,869.4v-51.3c71.9,0,130.3,58.3,130.3,130.3c0,42.3-20.1,79.8-51.3,103.6l-31.1-40.9   c18.9-14.4,31.1-37.2,31.1-62.8C1082,904.8,1046.7,869.4,1003.1,869.4z"/>
		<path class="st1" d="M1003.1,1027.2v51.3c-71.9,0-130.3-58.3-130.3-130.3c0-42.3,20.1-79.8,51.3-103.6l31.1,40.9   c-18.9,14.4-31.1,37.2-31.1,62.8C924.2,991.9,959.5,1027.2,1003.1,1027.2z"/>
		<path class="st2" d="M1113.1,1092.8c-30.5,23.3-68.6,37.1-110,37.1c-41.4,0-79.5-13.8-110-37.1c-23.8-18.2-43.1-42.1-55.6-69.7   c-10.3-22.8-16-48.1-16-74.7c0-46.5,17.5-89,46.3-121.1c33.2-37.1,81.5-60.5,135.3-60.5v51.3c-29.7,0-57,9.9-78.9,26.6   c-7.3,5.6-14,11.9-20,18.9c-19.5,22.8-31.3,52.4-31.3,84.7c0,20.1,4.5,39,12.6,56c20.9,43.9,65.7,74.2,117.6,74.2   c29.7,0,57-9.9,78.9-26.6L1113.1,1092.8z"/>
		<path class="st0" d="M1145.7,761l-32.6,42.9c-30.5-23.3-68.6-37.1-110-37.1c-16.9,0-33.3,2.3-48.8,6.6c-0.2,0.1-0.4,0.1-0.7,0.2   c-6.1,1.7-12,3.7-17.8,6.1c-5.7,2.3-11.3,4.9-16.7,7.7c0,0,0,0-0.1,0c-57.9,30.3-97.5,91.1-97.5,161c0,10.4,0.9,20.6,2.5,30.4   c7.8,46.3,33.2,86.7,69.1,114l-32.6,42.9c-43.4-33.1-75-81-87.2-136.2c-3.6-16.5-5.6-33.6-5.6-51.1c0-81.2,41.1-152.8,103.6-195.1   c11.4-7.7,23.6-14.5,36.4-20.2c7-3.1,14.3-5.9,21.6-8.4c23.2-7.7,48-11.8,73.8-11.8C1056.7,712.9,1106.2,730.8,1145.7,761z"/>
		<g>
			<path class="st3" d="M1003.1,913.9c19,0,34.4,15.4,34.4,34.4c0,19-15.4,34.4-34.4,34.4V913.9z"/>
		</g>
		<path class="st4" d="M872.9,948.3c0,20.1,4.5,39,12.6,56l-47.9,18.7c-10.3-22.8-16-48.1-16-74.7c0-46.5,17.5-89,46.3-121.1   l36.4,36.4C884.7,886.4,872.9,916,872.9,948.3z"/>
		<path class="st5" d="M1145.7,761l-32.6,42.9c-30.5-23.3-68.6-37.1-110-37.1c-16.9,0-33.3,2.3-48.8,6.6c-0.2,0.1-0.4,0.1-0.7,0.2   c-6.1,1.7-12,3.7-17.8,6.1c-5.7,2.3-11.3,4.9-16.7,7.7c0,0,0,0-0.1,0l-47.7-34.1c11.4-7.7,23.6-14.5,36.4-20.2   c7-3.1,14.3-5.9,21.6-8.4c23.2-7.7,48-11.8,73.8-11.8C1056.7,712.9,1106.2,730.8,1145.7,761z"/>
		<path class="st3" d="M821.5,948.3c0,10.4,0.9,20.6,2.5,30.4l-50.8,20.7c-3.6-16.5-5.6-33.6-5.6-51.1c0-87.4,47.6-163.7,118.4-204.3   l33,43.3C861.1,817.7,821.5,878.4,821.5,948.3z"/>
	</g>
	</svg>
